<svg xmlns="http://www.w3.org/2000/svg" viewBox="0 0 32 32">
  <defs>
    <linearGradient id="flame" x1="50%" y1="100%" x2="50%" y2="0%">
      <stop offset="0%" stop-color="#ff4400"/>
      <stop offset="50%" stop-color="#ff8c00"/>
      <stop offset="100%" stop-color="#ffdd00"/>
    </linearGradient>
  </defs>
  <path d="M16 2
    C16 2 20 8 19 13
    C21 11 22 8 21 5
    C25 9 27 14 26 19
    C27 17 28 15 27.5 12
    C30 16 30 21 28 25
    C26 29 21.5 31 16 31
    C10.5 31 6 29 4 25
    C2 21 2 16 5 12
    C6 15 7 17 9 18
    C7 14 8 9 11 6
    C11 10 13 13 15 13
    C13 9 13 5 16 2Z"
    fill="url(#flame)"/>
  <path d="M16 18
    C16 18 18 20 17.5 22.5
    C19 21 19.5 19 19 17
    C21 19 21 22 19.5 24
    C18.5 26 17 27 16 27
    C15 27 13.5 26 12.5 24
    C11 22 11 19 13 17
    C12.5 19 13 21 14.5 22.5
    C14 20 14 18 16 18Z"
    fill="#ffdd00" opacity="0.9"/>
</svg>
